<?xml version="1.0" encoding="UTF-8"?>
<svg id="Layer_1" data-name="Layer 1" xmlns="http://www.w3.org/2000/svg" viewBox="0 0 447.05 445">
  <defs>
    <style>
      .cls-1 {
        fill: #fe0;
        stroke-width: 0px;
      }
    </style>
  </defs>
  <polygon class="cls-1" points="442.97 173.5 441.76 164.53 368.26 147.37 406.23 91.03 401.74 84.92 342.54 113.89 349.08 35.1 342.54 31.86 305.79 95.11 262.53 0 254.37 0 264.96 93.09 156.77 6.94 147.4 9.4 230.67 113.89 65.33 58.8 57.58 67.36 205.36 151.05 2.05 168.2 0 180.44 211.49 203.3 34.72 347.83 42.88 358.86 252.32 244.54 211.08 445 223.73 445 304.57 256.4 353.56 403.77 362.13 397.23 343.75 249.45 418.47 333.95 422.98 325.38 367.45 220.87 446.24 248.64 447.05 240.05 381.34 187.39 442.97 173.5"/>
</svg>